<?xml version="1.0" encoding="utf-8"?>
<!-- Generator: Adobe Illustrator 25.4.1, SVG Export Plug-In . SVG Version: 6.00 Build 0)  -->
<svg version="1.1" baseProfile="basic" id="Layer_1"
	 xmlns="http://www.w3.org/2000/svg" xmlns:xlink="http://www.w3.org/1999/xlink" x="0px" y="0px" viewBox="0 0 140 140"
	 xml:space="preserve">
<g>
	<path d="M40.48,22.68c0.36,0.45,0.43,1.18,0.21,2.2c-0.36,1.71-1.37,3.23-3.01,4.56c-1.77,1.43-3.57,2.01-5.4,1.74
		c-1.83-0.28-3.53-1.38-5.1-3.32c-1.51-1.86-2.25-3.78-2.23-5.75c0.04-2.12,0.93-3.89,2.7-5.32c1.5-1.22,3.05-1.82,4.64-1.82
		c0.59,0,0.99,0.12,1.19,0.37c0.15,0.18,0.21,0.41,0.18,0.66c-0.03,0.26-0.13,0.46-0.32,0.61c-0.12,0.1-0.36,0.15-0.71,0.17
		c-1.57,0.09-2.87,0.56-3.9,1.39c-1.28,1.04-1.94,2.33-1.97,3.85c-0.03,1.53,0.59,3.07,1.86,4.63c2.55,3.14,5.19,3.6,7.92,1.38
		c1.56-1.27,2.37-2.55,2.42-3.84c-0.01-0.32-0.02-0.64-0.03-0.97c0.01-0.29,0.1-0.52,0.29-0.67c0.2-0.16,0.42-0.23,0.65-0.2
		C40.12,22.37,40.32,22.49,40.48,22.68z"/>
	<path d="M44.56,12.41c0.1,0.2,0.13,0.4,0.08,0.6c-0.05,0.2-0.16,0.34-0.33,0.43c-0.13,0.07-0.36,0.07-0.7,0.01
		c-0.34-0.06-0.61-0.03-0.81,0.07c-0.5,0.26-0.79,0.69-0.88,1.29c-0.08,0.6,0.07,1.27,0.45,2.02l0.53,1.03
		c0.6,1.15,0.95,2.13,1.06,2.94c0.1,0.75-0.02,1.22-0.38,1.41c-0.48,0.25-0.84,0.13-1.09-0.34c-0.05-0.09-0.16-0.48-0.32-1.16
		c-0.16-0.68-0.38-1.28-0.66-1.82c-0.76-1.47-1.58-2.54-2.46-3.21c-0.02-0.02-0.31-0.21-0.85-0.57c-0.28-0.18-0.45-0.35-0.53-0.51
		c-0.09-0.17-0.09-0.37,0-0.6c0.09-0.23,0.23-0.4,0.42-0.49c0.56-0.29,1.37,0.16,2.45,1.33c0-1.33,0.53-2.27,1.58-2.81
		c0.53-0.27,1.02-0.37,1.47-0.29C44.04,11.81,44.37,12.04,44.56,12.41z"/>
	<path d="M55.34,10.01c0.19,0.59,0.13,1.09-0.18,1.5c-0.14,0.18-0.66,0.53-1.56,1.04c-1.19,0.68-2.24,1.17-3.14,1.46
		c-0.41,0.13-0.92,0.27-1.51,0.4c0.69,2.12,1.85,2.92,3.46,2.39c0.45-0.14,0.81-0.4,1.08-0.77c0.14-0.18,0.37-0.59,0.68-1.22
		c0.11-0.23,0.26-0.38,0.45-0.44c0.24-0.08,0.47-0.06,0.7,0.07c0.23,0.12,0.39,0.31,0.47,0.57c0.07,0.21,0.05,0.44-0.05,0.67
		c-0.62,1.38-1.59,2.28-2.89,2.7c-2.69,0.88-4.55-0.24-5.56-3.35c-0.52-1.61-0.55-3.13-0.07-4.58c0.54-1.64,1.53-2.7,2.97-3.17
		C51.3,6.93,52.35,7,53.32,7.51S54.97,8.86,55.34,10.01z M53.69,10.66C53.4,9.89,53,9.34,52.47,9s-1.07-0.41-1.63-0.22
		c-0.73,0.24-1.29,0.71-1.68,1.42c-0.4,0.72-0.59,1.61-0.55,2.67c0.41-0.08,0.85-0.2,1.3-0.35C51.01,12.15,52.27,11.54,53.69,10.66z
		"/>
	<path d="M65.48,10.69c0.22,1.61,0.22,3.32,0,5.14c-0.11,0.91-0.4,1.4-0.86,1.47c-0.48,0.07-0.75-0.17-0.83-0.71
		c-0.02-0.12-0.02-0.21-0.02-0.28c-0.55,0.41-1.15,0.65-1.79,0.74c-1.13,0.16-2.06-0.04-2.79-0.59s-1.17-1.4-1.33-2.55
		c-0.16-1.17,0.05-2.14,0.64-2.92c0.59-0.78,1.46-1.25,2.6-1.41c0.99-0.14,1.87,0.08,2.65,0.65c-0.43-2.3-1.46-3.34-3.06-3.12
		c-0.36,0.05-0.73,0.21-1.1,0.48c-0.38,0.27-0.63,0.42-0.75,0.43c-0.2,0.03-0.39-0.03-0.57-0.17c-0.18-0.14-0.29-0.32-0.32-0.53
		c-0.05-0.35,0.16-0.71,0.63-1.08c0.5-0.4,1.13-0.65,1.89-0.76C63.27,5.1,64.95,6.83,65.48,10.69z M63.99,13.01
		c-0.21-1.49-1.01-2.14-2.42-1.94c-1.54,0.21-2.2,1.06-2,2.54c0.21,1.49,1.07,2.13,2.6,1.92c0.66-0.09,1.16-0.36,1.48-0.8
		S64.08,13.71,63.99,13.01z"/>
	<path d="M75.57,7.85c0,0.21-0.07,0.38-0.21,0.52c-0.13,0.14-0.29,0.21-0.47,0.21c-0.09,0-0.42-0.12-1.01-0.37
		c-0.58-0.24-1.16-0.37-1.72-0.39c-0.18,0-0.36,0-0.56,0.02c-0.24,0.96-0.37,1.84-0.39,2.65c-0.02,1.04,0.13,1.84,0.47,2.4
		c0.34,0.57,0.82,0.85,1.44,0.87c0.19,0,0.44-0.05,0.75-0.17c0.31-0.11,0.54-0.17,0.68-0.17c0.47,0.01,0.7,0.29,0.69,0.85
		c-0.01,0.36-0.21,0.65-0.61,0.87c-0.4,0.22-0.93,0.32-1.61,0.3c-2.51-0.06-3.73-1.76-3.65-5.11c0.02-0.71,0.12-1.48,0.31-2.32
		c-0.17,0.02-0.53,0.08-1.08,0.18c-0.36,0.06-0.63,0.09-0.8,0.09c-0.63-0.01-0.94-0.26-0.93-0.75c0.02-0.66,1.12-1.07,3.31-1.22
		c0.48-1.42,1.05-2.12,1.7-2.1c0.2,0,0.37,0.08,0.51,0.23c0.14,0.15,0.21,0.33,0.2,0.53c0,0.15-0.05,0.35-0.15,0.58
		c-0.09,0.23-0.19,0.47-0.28,0.7C74.46,6.4,75.59,6.93,75.57,7.85z"/>
	<path d="M86.04,10.37c-0.11,0.61-0.41,1.01-0.88,1.23c-0.21,0.09-0.83,0.15-1.87,0.17c-1.37,0.03-2.53-0.05-3.46-0.22
		c-0.42-0.08-0.93-0.21-1.52-0.38c-0.41,2.2,0.22,3.45,1.89,3.76c0.46,0.09,0.9,0.03,1.32-0.16c0.21-0.09,0.6-0.34,1.18-0.75
		c0.21-0.15,0.41-0.2,0.6-0.17c0.25,0.05,0.44,0.18,0.58,0.39s0.19,0.46,0.14,0.73c-0.04,0.22-0.17,0.41-0.37,0.56
		c-1.21,0.91-2.48,1.23-3.83,0.98c-2.78-0.52-3.87-2.39-3.27-5.62c0.31-1.66,1.02-3.01,2.14-4.05c1.26-1.18,2.64-1.63,4.12-1.35
		c1.16,0.22,2.04,0.78,2.65,1.7C86.07,8.12,86.27,9.17,86.04,10.37z M84.28,10.15c0.12-0.82,0.03-1.5-0.27-2.04
		c-0.3-0.54-0.74-0.87-1.32-0.98c-0.76-0.14-1.47,0-2.15,0.44c-0.7,0.44-1.28,1.13-1.76,2.07c0.4,0.12,0.84,0.23,1.31,0.32
		C81.21,10.16,82.61,10.23,84.28,10.15z"/>
	<path d="M100.69,14.16c-0.25,0.54-0.65,0.67-1.19,0.42c-0.19-0.09-0.3-0.23-0.35-0.41c-0.02-0.16-0.03-0.32-0.05-0.49
		c-0.13-0.59-0.47-1.01-1.02-1.27c-0.95-0.45-1.68-0.14-2.19,0.94c-0.18,0.37-0.25,0.74-0.2,1.08c0.04,0.3,0.17,0.68,0.41,1.15
		c0.54,1.05,0.85,1.75,0.94,2.09c0.2,0.71,0.14,1.39-0.17,2.05c-0.41,0.86-1.02,1.42-1.83,1.69s-1.67,0.2-2.56-0.23
		c-0.85-0.41-1.44-0.96-1.78-1.66c-0.33-0.68-0.33-1.35-0.02-2c0.31-0.66,0.75-0.85,1.33-0.58c0.48,0.23,0.55,0.71,0.22,1.45
		c0.17,0.64,0.49,1.08,0.97,1.31c0.4,0.19,0.79,0.22,1.15,0.1c0.37-0.12,0.64-0.37,0.81-0.73c0.16-0.33,0.15-0.72-0.02-1.16
		c0-0.01-0.24-0.51-0.73-1.5c-0.67-1.37-0.74-2.63-0.19-3.78c0.45-0.94,1.09-1.56,1.94-1.86c0.85-0.3,1.74-0.23,2.67,0.21
		c0.76,0.36,1.33,0.88,1.68,1.54C100.86,13.14,100.92,13.69,100.69,14.16z"/>
	<path d="M108.94,23.51c-1,1.42-2.22,2.26-3.65,2.52c-1.43,0.26-2.84-0.1-4.23-1.08c-1.15-0.81-1.78-1.84-1.88-3.09
		s0.35-2.57,1.33-3.97c1.04-1.47,2.24-2.34,3.6-2.59c1.34-0.25,2.69,0.11,4.07,1.08c1.15,0.81,1.8,1.88,1.94,3.19
		C110.27,20.86,109.87,22.18,108.94,23.51z M107.48,22.5c0.69-0.97,0.99-1.9,0.9-2.78c-0.08-0.88-0.54-1.61-1.35-2.19
		c-1.83-1.29-3.51-0.83-5.06,1.36c-0.71,1.01-1.06,1.93-1.05,2.75s0.39,1.5,1.13,2.02c0.96,0.68,1.92,0.91,2.88,0.71
		C105.89,24.18,106.74,23.55,107.48,22.5z"/>
	<path d="M119,34.55c-3.38,3.03-5.43,4.14-6.15,3.33c-0.28-0.31-0.22-0.64,0.17-0.99c0,0,0.58-0.38,1.71-1.13
		c1.14-0.75,2.21-1.57,3.21-2.46c1.67-1.49,2.15-2.63,1.44-3.41c-0.62-0.69-1.44-0.77-2.47-0.23c-0.79,0.41-2.13,1.46-4.02,3.16
		c-0.29,0.26-0.59,0.57-0.9,0.93c-0.31,0.36-0.5,0.56-0.56,0.62c-0.44,0.39-0.84,0.38-1.21-0.04c-0.45-0.5,0.13-1.46,1.72-2.89
		c0.67-0.6,1.39-1.2,2.17-1.81c0.78-0.6,1.19-0.93,1.24-0.98c0.65-0.58,0.67-1.22,0.06-1.91c-0.58-0.64-1.29-0.85-2.12-0.63
		c-0.81,0.22-1.83,0.87-3.04,1.96c-0.78,0.7-1.49,1.37-2.12,2.02c-0.63,0.65-0.9,0.92-0.79,0.83c-0.17,0.15-0.36,0.21-0.58,0.19
		c-0.22-0.02-0.41-0.13-0.58-0.32c-0.35-0.39-0.19-0.97,0.47-1.74c0.19-0.22,0.74-0.74,1.64-1.55c1.89-1.69,3.84-3.16,5.84-4.39
		c0.66-0.4,1.12-0.64,1.4-0.7c0.33-0.08,0.62,0.01,0.85,0.27c0.37,0.42,0.34,0.82-0.11,1.21l-1.76,1.04
		c0.87-0.1,1.63,0.21,2.26,0.91c0.51,0.56,0.67,1.22,0.49,1.96c1.42-0.26,2.59,0.11,3.51,1.13C122.08,30.45,121.5,32.31,119,34.55z"
		/>
	<path d="M126,43.96c-0.54,0.3-1.04,0.34-1.51,0.11c-0.21-0.1-0.65-0.54-1.33-1.33c-0.9-1.04-1.58-1.97-2.05-2.79
		c-0.21-0.38-0.44-0.85-0.69-1.41c-1.95,1.09-2.5,2.38-1.67,3.87c0.23,0.41,0.55,0.71,0.97,0.91c0.21,0.1,0.65,0.24,1.33,0.42
		c0.25,0.06,0.42,0.18,0.51,0.35c0.12,0.22,0.15,0.45,0.07,0.7c-0.07,0.25-0.23,0.44-0.47,0.57c-0.2,0.11-0.42,0.14-0.67,0.08
		c-1.47-0.34-2.54-1.11-3.21-2.3c-1.39-2.47-0.65-4.51,2.2-6.11c1.47-0.83,2.96-1.15,4.47-0.96c1.72,0.21,2.94,0.98,3.68,2.29
		c0.58,1.03,0.71,2.07,0.4,3.12S127.05,43.37,126,43.96z M125.04,42.47c0.7-0.43,1.16-0.94,1.39-1.52c0.23-0.58,0.19-1.13-0.1-1.64
		c-0.38-0.67-0.95-1.13-1.72-1.37c-0.78-0.25-1.69-0.26-2.72-0.02c0.17,0.39,0.36,0.79,0.6,1.2
		C123.05,40.13,123.9,41.25,125.04,42.47z"/>
	<path d="M129.97,52.72c-0.2,0.07-0.38,0.07-0.56,0s-0.3-0.19-0.36-0.36c-0.03-0.08-0.04-0.44-0.02-1.07
		c0.02-0.63-0.07-1.21-0.26-1.74c-0.06-0.17-0.13-0.34-0.22-0.51c-0.98,0.12-1.85,0.32-2.61,0.6c-0.98,0.35-1.67,0.79-2.07,1.31
		c-0.4,0.52-0.5,1.07-0.29,1.66c0.06,0.18,0.21,0.39,0.43,0.64c0.22,0.25,0.35,0.44,0.4,0.57c0.16,0.45-0.02,0.76-0.54,0.95
		c-0.34,0.12-0.68,0.04-1.03-0.25s-0.63-0.75-0.86-1.39c-0.85-2.36,0.29-4.11,3.44-5.25c0.66-0.24,1.42-0.42,2.28-0.55
		c-0.08-0.15-0.27-0.46-0.56-0.94c-0.19-0.32-0.31-0.55-0.37-0.72c-0.22-0.6-0.1-0.98,0.36-1.14c0.62-0.23,1.4,0.66,2.34,2.64
		c1.5-0.06,2.35,0.21,2.58,0.83c0.07,0.19,0.06,0.38-0.03,0.56c-0.09,0.18-0.23,0.31-0.42,0.38c-0.15,0.05-0.34,0.08-0.59,0.07
		c-0.25,0-0.5-0.01-0.76-0.01C130.92,51.15,130.84,52.4,129.97,52.72z"/>
	<path d="M128.95,64.31c-1.67,0.29-3.03,0.36-4.09,0.21c-1.01-0.14-1.55-0.44-1.63-0.9c-0.04-0.26,0-0.5,0.13-0.71
		c0.13-0.21,0.3-0.33,0.5-0.37c2.14,0.19,3.74,0.2,4.8,0.02c1.58-0.27,2.7-0.65,3.36-1.14c0.68-0.5,0.94-1.17,0.8-2.01
		c-0.08-0.44-0.26-0.88-0.56-1.3c-0.29-0.42-0.62-0.74-0.97-0.93c-0.44-0.24-1.06-0.29-1.86-0.16l-0.56,0.1
		c-1.49,0.26-2.92,0.56-4.3,0.92s-2.02,0.52-1.93,0.51c-0.58,0.1-0.91-0.12-1.01-0.66c-0.05-0.31,0-0.54,0.18-0.71
		c0.14-0.14,0.46-0.29,0.94-0.45c1.33-0.43,3.12-0.84,5.38-1.23c1.98-0.34,4.28-0.51,6.91-0.52c0.57,0,0.95,0.03,1.13,0.09
		c0.27,0.09,0.43,0.29,0.48,0.59c0.04,0.22-0.01,0.42-0.15,0.6c-0.14,0.18-0.33,0.29-0.59,0.34c0.01,0-1,0.02-3.02,0.06
		c0.85,0.65,1.37,1.52,1.56,2.62C134.89,61.93,133.06,63.6,128.95,64.31z"/>
	<path d="M134.06,69.12c-3.57,0.1-6.21,0.04-7.93-0.17c-0.69-0.08-1.16-0.18-1.4-0.3c-0.32-0.15-0.48-0.41-0.49-0.76
		c-0.01-0.24,0.07-0.44,0.22-0.61s0.34-0.26,0.56-0.26c-0.03,0,0.18,0.04,0.62,0.13c0.5,0.1,1.07,0.18,1.7,0.23
		c0.9,0.07,1.91,0.09,3.02,0.06c0.49-0.01,1-0.03,1.54-0.06c0.54-0.03,0.83-0.04,0.88-0.04c0.8-0.02,1.36,0.03,1.68,0.16
		c0.35,0.13,0.53,0.4,0.54,0.79C135.01,68.83,134.7,69.11,134.06,69.12z M137.45,69.41c-0.84,0.02-1.27-0.38-1.29-1.2
		c-0.01-0.33,0.1-0.61,0.32-0.85s0.5-0.36,0.83-0.36c0.36-0.01,0.66,0.11,0.92,0.35s0.39,0.54,0.4,0.91
		c0.01,0.34-0.09,0.61-0.31,0.83C138.1,69.29,137.81,69.4,137.45,69.41z"/>
	<path d="M129.16,81.03c-1.4-0.16-2.77-0.54-4.1-1.15c-0.83-0.38-1.22-0.77-1.17-1.19c0.02-0.22,0.12-0.41,0.27-0.55
		c0.16-0.14,0.33-0.2,0.53-0.18c0.05,0.01,0.57,0.21,1.56,0.6c0.99,0.4,1.99,0.65,3,0.76c2.29,0.25,3.52-0.33,3.68-1.77
		c0.09-0.82-0.14-1.52-0.69-2.11c-0.57-0.61-1.36-0.97-2.38-1.08c-0.57-0.06-1.38-0.07-2.42-0.02s-1.78,0.05-2.21,0
		c-1.01-0.11-1.49-0.46-1.42-1.03c0.03-0.29,0.12-0.49,0.26-0.59c0.11-0.08,0.32-0.13,0.64-0.15c0.37,0.03,1.43,0.08,3.19,0.13
		c2.46,0.03,4.21,0.1,5.23,0.21c1.78,0.2,2.64,0.64,2.56,1.33c-0.02,0.22-0.12,0.41-0.27,0.55c-0.16,0.14-0.33,0.21-0.51,0.19
		c-0.13-0.01-0.37-0.08-0.72-0.19c-0.35-0.11-0.65-0.18-0.9-0.21l-0.2-0.02c1.09,1,1.56,2.13,1.42,3.38
		c-0.13,1.15-0.65,1.99-1.57,2.54C132.01,81.02,130.75,81.2,129.16,81.03z"/>
	<path d="M131.63,93.58c-0.44-0.13-0.59-0.45-0.44-0.95c0.02-0.07,0.08-0.21,0.16-0.42c0.11-0.28,0.2-0.5,0.27-0.69
		c-0.96,0.46-1.96,0.54-3,0.23c-1.01-0.3-1.73-0.91-2.17-1.81c-0.44-0.91-0.49-1.93-0.14-3.07c0.08-0.26,0.23-0.66,0.45-1.2
		c-0.22-0.59-0.54-1.1-0.95-1.54c-0.2,1.15-0.35,1.9-0.46,2.26c-0.7,2.33-1.85,3.25-3.45,2.77c-0.97-0.29-1.6-0.96-1.89-2
		c-0.29-1.04-0.2-2.35,0.27-3.92c0.29-0.99,0.72-1.72,1.28-2.2c0.52-0.44,1.05-0.59,1.59-0.42c0.19,0.06,0.34,0.19,0.43,0.4
		c0.09,0.21,0.11,0.42,0.04,0.64c-0.04,0.15-0.15,0.28-0.33,0.38c-0.2,0.1-0.39,0.19-0.58,0.29c-0.36,0.2-0.66,0.68-0.89,1.46
		c-0.3,1-0.4,1.82-0.31,2.45c0.09,0.61,0.35,0.99,0.8,1.12c0.64,0.19,1.18-0.46,1.63-1.94c0.1-0.35,0.21-0.83,0.32-1.42
		c0.11-0.6,0.19-1.01,0.26-1.23c0.16-0.55,0.44-0.77,0.83-0.65c0.54,0.16,1.3,0.97,2.28,2.41c0.88-0.69,1.9-0.86,3.07-0.51
		c1.08,0.32,1.89,0.98,2.42,1.98s0.64,2.06,0.3,3.18c-0.07,0.24-0.18,0.5-0.33,0.79c0.22,0.27,0.18,0.92-0.12,1.94
		C132.57,93.17,132.13,93.73,131.63,93.58z M129.27,90.17c0.63,0.19,1.19,0.15,1.68-0.11s0.83-0.71,1.02-1.32
		c0.2-0.68,0.14-1.31-0.19-1.87c-0.33-0.57-0.86-0.96-1.59-1.18c-1.19-0.35-1.99,0.18-2.42,1.6c-0.21,0.72-0.19,1.33,0.07,1.83
		C128.11,89.61,128.58,89.97,129.27,90.17z"/>
	<path d="M121.1,105.81c-0.18-0.11-0.29-0.25-0.35-0.44c-0.06-0.19-0.04-0.36,0.05-0.51c0.05-0.08,0.32-0.31,0.83-0.69
		c0.5-0.38,0.9-0.82,1.19-1.3c0.09-0.15,0.18-0.32,0.26-0.5c-0.71-0.69-1.41-1.24-2.1-1.66c-0.89-0.54-1.66-0.8-2.32-0.79
		c-0.66,0.01-1.15,0.28-1.47,0.81c-0.1,0.16-0.18,0.41-0.23,0.74c-0.06,0.33-0.12,0.55-0.19,0.67c-0.25,0.41-0.61,0.46-1.08,0.17
		c-0.31-0.19-0.46-0.51-0.45-0.96s0.19-0.96,0.54-1.54c1.3-2.15,3.39-2.35,6.25-0.62c0.6,0.37,1.22,0.84,1.86,1.43
		c0.07-0.15,0.19-0.5,0.38-1.03c0.13-0.35,0.23-0.59,0.32-0.74c0.33-0.54,0.7-0.69,1.12-0.43c0.57,0.34,0.37,1.5-0.59,3.48
		c0.99,1.12,1.31,1.97,0.97,2.52c-0.1,0.17-0.26,0.28-0.45,0.33c-0.2,0.05-0.39,0.02-0.56-0.09c-0.13-0.08-0.27-0.22-0.43-0.42
		c-0.15-0.2-0.31-0.4-0.47-0.59C122.92,105.58,121.89,106.29,121.1,105.81z"/>
	<path d="M112.22,113.54c-1.31-1.15-2.02-2.44-2.13-3.89c-0.11-1.45,0.4-2.81,1.51-4.09c0.93-1.06,2.02-1.58,3.27-1.55
		c1.25,0.03,2.52,0.61,3.81,1.74c1.36,1.18,2.09,2.47,2.21,3.85c0.11,1.36-0.38,2.67-1.49,3.94c-0.93,1.06-2.05,1.6-3.37,1.6
		C114.71,115.13,113.44,114.6,112.22,113.54z M113.37,112.19c0.9,0.78,1.79,1.18,2.68,1.18s1.66-0.37,2.32-1.12
		c1.47-1.68,1.19-3.41-0.83-5.17c-0.93-0.81-1.81-1.26-2.63-1.33s-1.53,0.23-2.13,0.92c-0.77,0.88-1.11,1.81-1.01,2.79
		S112.4,111.35,113.37,112.19z"/>
	<path d="M107.26,126.38c0.02,0.03-0.22-0.35-0.73-1.12c-0.59-0.9-1.23-1.84-1.93-2.83c-1.01-1.42-2.11-2.92-3.31-4.48
		c-0.25-0.32-0.5-0.65-0.76-0.98c-0.26-0.33-0.4-0.51-0.42-0.53c-0.54-0.7-0.58-1.22-0.14-1.56c0.49-0.37,1.03-0.17,1.64,0.62
		c0.14,0.18,0.25,0.33,0.32,0.44c0.22-1.55,0.91-2.78,2.08-3.68c0.98-0.75,1.99-1.03,3.05-0.83s2.01,0.85,2.85,1.95
		c1.15,1.5,1.67,3.04,1.55,4.6c-0.12,1.56-0.85,2.86-2.2,3.89c-0.62,0.48-1.38,0.83-2.27,1.05c0.97,1.33,1.52,2.14,1.66,2.44
		c0.26,0.56,0.19,1-0.23,1.32C108.05,127,107.66,126.9,107.26,126.38z M106.03,121.5c0.91-0.08,1.68-0.37,2.3-0.84
		c0.96-0.73,1.46-1.64,1.51-2.73c0.05-1.09-0.36-2.2-1.23-3.33c-0.59-0.78-1.24-1.24-1.95-1.38c-0.7-0.14-1.38,0.04-2.04,0.54
		c-0.83,0.63-1.25,1.39-1.25,2.27c0.02,0.28,0.04,0.55,0.07,0.83c0.01,0.3-0.06,0.55-0.24,0.74
		C104.21,118.93,105.15,120.23,106.03,121.5z"/>
	<path d="M93.13,124.81c-0.73-1.45-1.27-3.08-1.64-4.87c-0.19-0.9-0.07-1.46,0.35-1.67c0.43-0.21,0.77-0.08,1.01,0.41
		c0.06,0.11,0.09,0.2,0.11,0.25c0.39-0.56,0.88-0.99,1.46-1.28c1.02-0.51,1.97-0.62,2.83-0.33c0.86,0.29,1.55,0.96,2.07,1.99
		c0.53,1.05,0.63,2.05,0.32,2.97c-0.31,0.93-0.98,1.65-2.01,2.16c-0.9,0.45-1.8,0.53-2.71,0.23c1.15,2.04,2.45,2.7,3.9,1.98
		c0.32-0.16,0.62-0.43,0.89-0.81c0.27-0.38,0.46-0.59,0.57-0.65c0.18-0.09,0.38-0.1,0.6-0.02c0.22,0.08,0.37,0.21,0.47,0.4
		c0.16,0.32,0.08,0.73-0.25,1.23c-0.35,0.54-0.86,0.98-1.55,1.32C97.02,129.41,94.88,128.3,93.13,124.81z M93.81,122.13
		c0.67,1.35,1.64,1.7,2.91,1.07c1.39-0.69,1.75-1.71,1.08-3.04c-0.67-1.35-1.7-1.67-3.08-0.99c-0.6,0.3-0.98,0.71-1.14,1.23
		C93.42,120.93,93.5,121.5,93.81,122.13z"/>
	<path d="M86.11,133.38c-0.22-0.71-0.32-2.04-0.3-3.97c0.02-1.78,0.33-4.13,0.93-7.05c0.1-0.65,0.21-1.29,0.31-1.94
		c0.11-0.51,0.33-0.82,0.66-0.92c0.2-0.06,0.4-0.03,0.62,0.09c0.21,0.12,0.35,0.28,0.42,0.48c0.12,0.37,0.06,1.06-0.17,2.07
		c-0.51,2.35-0.78,3.56-0.8,3.64c1.58,1.14,2.89,2.26,3.93,3.34c0.84,0.86,1.31,1.47,1.42,1.83c0.16,0.51,0,0.84-0.49,0.99
		c-0.3,0.1-0.69-0.07-1.17-0.51c-0.46-0.51-0.92-1.01-1.38-1.52c-0.81-0.88-1.67-1.67-2.58-2.37c-0.08,1.21-0.06,2.44,0.06,3.69
		c0.12,1.3,0.18,1.96,0.18,1.99c-0.02,0.51-0.2,0.83-0.55,0.94C86.69,134.32,86.32,134.06,86.11,133.38z"/>
	<path d="M68.38,131.72c-0.03-0.62,0.16-1.08,0.57-1.4c0.18-0.14,0.78-0.34,1.78-0.59c1.33-0.34,2.47-0.54,3.41-0.59
		c0.43-0.02,0.95-0.02,1.57,0.01c-0.11-2.23-1.01-3.3-2.71-3.22c-0.47,0.02-0.88,0.18-1.25,0.46c-0.18,0.14-0.51,0.47-0.97,1
		c-0.17,0.19-0.35,0.29-0.55,0.3c-0.25,0.01-0.47-0.07-0.66-0.25c-0.19-0.18-0.29-0.4-0.3-0.67c-0.01-0.22,0.06-0.44,0.23-0.63
		c0.96-1.16,2.13-1.78,3.5-1.84c2.83-0.14,4.32,1.43,4.48,4.7c0.08,1.69-0.3,3.16-1.13,4.43c-0.96,1.44-2.19,2.2-3.7,2.27
		c-1.18,0.06-2.17-0.29-2.97-1.04C68.87,133.91,68.44,132.93,68.38,131.72z M70.14,131.52c0.08,0.82,0.32,1.46,0.74,1.92
		c0.42,0.46,0.92,0.68,1.51,0.65c0.77-0.04,1.43-0.35,1.99-0.92c0.58-0.59,0.99-1.4,1.23-2.43c-0.42-0.03-0.87-0.03-1.34,0
		C73.13,130.79,71.75,131.05,70.14,131.52z"/>
	<path d="M57.73,134.11c0.06-0.48,0.28-1.22,0.66-2.21c0.41-1.08,0.72-1.84,0.92-2.27c0.57-1.25,1.28-2.52,2.13-3.8
		c0.94-1.43,1.67-2.11,2.2-2.05c0.33,0.04,0.55,0.4,0.65,1.08c0.13,0.94,0.26,1.88,0.38,2.82c0.5,2.74,1.12,5.03,1.85,6.86
		c0.1,0.22,0.19,0.44,0.29,0.66c0.1,0.22,0.13,0.41,0.11,0.56c-0.07,0.53-0.36,0.76-0.89,0.7c-0.59-0.07-1.15-0.93-1.68-2.56
		c-0.5-1.56-1.01-3.98-1.53-7.25c-1.22,1.81-2.28,4.18-3.17,7.13c-0.24,0.78-0.39,1.22-0.44,1.32c-0.16,0.3-0.4,0.42-0.75,0.38
		C57.87,135.42,57.63,134.96,57.73,134.11z"/>
	<path d="M47.42,127.48c0.18-0.59,0.52-0.96,1.01-1.12c0.22-0.07,0.84-0.05,1.87,0.05c1.37,0.13,2.5,0.33,3.41,0.61
		c0.41,0.13,0.9,0.31,1.47,0.54c0.66-2.14,0.17-3.45-1.45-3.95c-0.45-0.14-0.89-0.13-1.33,0.01c-0.22,0.07-0.64,0.27-1.26,0.61
		c-0.22,0.12-0.43,0.16-0.62,0.1c-0.24-0.07-0.42-0.23-0.53-0.46c-0.12-0.23-0.14-0.48-0.06-0.74c0.07-0.22,0.21-0.39,0.43-0.52
		c1.3-0.77,2.61-0.95,3.91-0.54c2.71,0.83,3.58,2.81,2.62,5.95c-0.5,1.61-1.35,2.88-2.58,3.78c-1.39,1.03-2.81,1.32-4.25,0.88
		c-1.13-0.35-1.94-1.01-2.44-1.99C47.13,129.71,47.06,128.64,47.42,127.48z M49.14,127.9c-0.21,0.8-0.19,1.48,0.04,2.06
		s0.64,0.95,1.2,1.12c0.74,0.23,1.47,0.16,2.19-0.19c0.74-0.35,1.4-0.98,1.99-1.86c-0.39-0.17-0.81-0.32-1.26-0.46
		C52.2,128.22,50.81,128,49.14,127.9z"/>
	<path d="M38.29,121.15c0.66-1.25,1.51-2.38,2.56-3.4c0.65-0.63,1.17-0.85,1.54-0.66c0.2,0.1,0.34,0.25,0.41,0.45
		c0.08,0.2,0.07,0.38-0.02,0.56c-0.02,0.05-0.4,0.46-1.13,1.24c-0.73,0.78-1.33,1.62-1.8,2.51c-1.07,2.04-0.97,3.4,0.31,4.07
		c0.73,0.38,1.47,0.43,2.21,0.13c0.77-0.3,1.4-0.91,1.87-1.83c0.27-0.51,0.57-1.26,0.9-2.24c0.33-0.99,0.6-1.67,0.81-2.06
		c0.47-0.9,0.97-1.22,1.48-0.95c0.26,0.14,0.41,0.29,0.45,0.46c0.03,0.13,0,0.35-0.09,0.65c-0.17,0.33-0.59,1.3-1.28,2.92
		c-0.92,2.29-1.63,3.88-2.11,4.8c-0.83,1.59-1.56,2.22-2.17,1.9c-0.2-0.1-0.34-0.26-0.41-0.45c-0.08-0.2-0.07-0.38,0.01-0.54
		c0.06-0.12,0.21-0.32,0.44-0.6c0.23-0.29,0.4-0.54,0.52-0.76l0.09-0.18c-1.33,0.65-2.55,0.68-3.66,0.09
		c-1.02-0.54-1.62-1.33-1.79-2.39C37.26,123.8,37.55,122.57,38.29,121.15z"/>
	<path d="M24.72,120c0.55-0.63,1.14-0.68,1.76-0.14c0.25,0.22,0.39,0.49,0.4,0.81c0.02,0.32-0.08,0.61-0.29,0.85
		c-0.23,0.27-0.53,0.41-0.88,0.44c-0.35,0.02-0.66-0.08-0.94-0.32c-0.25-0.22-0.39-0.48-0.4-0.79
		C24.37,120.56,24.48,120.27,24.72,120z M27.23,117.7c2.35-2.69,4.18-4.6,5.5-5.71c0.53-0.45,0.92-0.73,1.17-0.82
		c0.33-0.13,0.62-0.08,0.89,0.15c0.18,0.16,0.28,0.35,0.3,0.58c0.02,0.23-0.04,0.42-0.18,0.59c0.02-0.02-0.15,0.1-0.51,0.37
		c-0.41,0.3-0.85,0.67-1.32,1.1c-0.66,0.62-1.36,1.34-2.09,2.18c-0.32,0.37-0.65,0.76-1,1.17s-0.53,0.64-0.57,0.67
		c-0.53,0.6-0.94,0.98-1.25,1.12c-0.33,0.17-0.65,0.12-0.94-0.14C26.81,118.6,26.81,118.18,27.23,117.7z"/>
	<path d="M17.54,109.88c0.15-0.14,0.35-0.21,0.58-0.2c0.23,0.01,0.42,0.08,0.55,0.23c0.03,0.04,0.15,0.37,0.34,0.99
		c0.2,0.63,0.51,1.18,0.94,1.66c0.67,0.75,1.44,0.99,2.33,0.74c0.42-0.12,0.93-0.43,1.54-0.92c0.63-0.54,1.27-1.07,1.9-1.61
		c-0.98-1.29-1.59-2.17-1.84-2.63c-0.33-0.63-0.34-1.08-0.03-1.36c0.17-0.15,0.35-0.24,0.55-0.25c0.19-0.01,0.34,0.04,0.45,0.16
		c0.06,0.07,0.29,0.42,0.68,1.04c0.46,0.72,0.92,1.39,1.38,1.99c2.04-1.72,3.33-2.75,3.85-3.09c0.9-0.59,1.53-0.69,1.88-0.29
		c0.38,0.42,0.33,0.85-0.16,1.29L31,108.72c-1.03,0.75-2.02,1.54-2.99,2.38c0.47,0.55,0.76,0.93,0.84,1.17
		c0.11,0.3,0.04,0.56-0.23,0.81c-0.38,0.34-0.75,0.31-1.12-0.1l-0.02-0.03l-0.67-0.8c-0.6,0.51-1.2,1.02-1.79,1.53
		c-0.57,0.47-1.04,0.79-1.4,0.95c-1.89,0.87-3.5,0.57-4.82-0.9c-0.73-0.82-1.21-1.61-1.43-2.37
		C17.17,110.65,17.22,110.16,17.54,109.88z"/>
	<path d="M10.64,102.07c0.73-0.41,1.3-0.26,1.71,0.45c0.16,0.29,0.2,0.59,0.11,0.9s-0.28,0.55-0.56,0.71
		c-0.31,0.17-0.63,0.22-0.97,0.12c-0.34-0.09-0.6-0.3-0.78-0.61c-0.17-0.29-0.21-0.58-0.12-0.87
		C10.12,102.48,10.33,102.24,10.64,102.07z M13.78,100.73c3.11-1.76,5.47-2.95,7.08-3.57c0.65-0.25,1.11-0.38,1.37-0.39
		c0.35-0.02,0.62,0.13,0.79,0.44c0.12,0.21,0.15,0.42,0.09,0.64c-0.05,0.22-0.18,0.39-0.37,0.49c0.03-0.01-0.18,0.04-0.6,0.18
		c-0.49,0.15-1.03,0.34-1.61,0.6c-0.83,0.36-1.73,0.82-2.7,1.36c-0.42,0.24-0.87,0.5-1.33,0.77c-0.46,0.28-0.72,0.42-0.76,0.45
		c-0.7,0.39-1.21,0.61-1.56,0.64c-0.37,0.05-0.65-0.1-0.84-0.44C13.07,101.44,13.22,101.05,13.78,100.73z"/>
	<path d="M10.93,90.12c0.19-0.08,0.38-0.09,0.56-0.02s0.31,0.18,0.38,0.34c0.03,0.08,0.06,0.44,0.07,1.07
		c0.01,0.63,0.13,1.21,0.35,1.73c0.07,0.16,0.15,0.33,0.25,0.5c0.98-0.17,1.84-0.41,2.58-0.72c0.96-0.4,1.62-0.87,2-1.4
		c0.38-0.54,0.45-1.09,0.21-1.67c-0.07-0.17-0.23-0.38-0.46-0.62s-0.37-0.42-0.43-0.55c-0.18-0.44-0.02-0.76,0.5-0.98
		c0.33-0.14,0.68-0.07,1.04,0.2c0.36,0.27,0.67,0.72,0.93,1.35c0.97,2.32-0.09,4.12-3.18,5.41c-0.65,0.27-1.4,0.49-2.25,0.66
		c0.09,0.14,0.29,0.45,0.6,0.91c0.21,0.31,0.34,0.54,0.41,0.7c0.24,0.58,0.14,0.97-0.31,1.16c-0.61,0.25-1.43-0.59-2.46-2.53
		c-1.49,0.13-2.36-0.1-2.61-0.7c-0.08-0.19-0.08-0.37,0-0.56s0.21-0.32,0.41-0.4c0.14-0.06,0.34-0.09,0.59-0.1
		c0.25-0.01,0.5-0.02,0.75-0.03C10.04,91.73,10.07,90.48,10.93,90.12z"/>
	<path d="M6.57,75.92c0.59-0.09,0.92,0.16,1.01,0.75c0.03,0.21-0.02,0.38-0.15,0.52c-0.12,0.1-0.25,0.21-0.37,0.32
		c-0.41,0.43-0.57,0.95-0.48,1.56c0.16,1.04,0.83,1.46,2,1.29c0.41-0.06,0.75-0.21,1.01-0.44c0.23-0.2,0.47-0.52,0.72-0.98
		c0.57-1.03,0.97-1.68,1.2-1.95c0.48-0.56,1.07-0.9,1.79-1.01c0.94-0.14,1.75,0.05,2.43,0.57s1.1,1.27,1.25,2.25
		c0.14,0.93,0.01,1.73-0.38,2.4c-0.38,0.65-0.93,1.03-1.64,1.14c-0.72,0.11-1.13-0.15-1.22-0.77c-0.08-0.52,0.28-0.86,1.08-1
		c0.44-0.5,0.62-1.01,0.54-1.53c-0.07-0.44-0.25-0.78-0.56-1.01c-0.31-0.24-0.66-0.33-1.06-0.26c-0.36,0.05-0.68,0.28-0.95,0.67
		c-0.01,0.01-0.29,0.49-0.83,1.45c-0.76,1.33-1.77,2.08-3.02,2.28c-1.03,0.16-1.9-0.03-2.63-0.57c-0.73-0.53-1.17-1.31-1.33-2.33
		c-0.13-0.84-0.02-1.59,0.33-2.25C5.63,76.36,6.05,76,6.57,75.92z"/>
	<path d="M15.28,63.96c0.28,0.01,0.52,0.1,0.71,0.27c0.19,0.18,0.28,0.39,0.28,0.64c-0.01,0.47-0.74,0.85-2.19,1.13
		c1.35,1.03,2,2.26,1.97,3.69c-0.05,2.36-1.97,3.5-5.74,3.42c-1.94-0.04-3.62-0.21-5.05-0.5c-0.88-0.17-1.32-0.56-1.31-1.16
		c0-0.21,0.09-0.4,0.25-0.55c0.16-0.16,0.35-0.23,0.57-0.23c0.19,0,0.92,0.11,2.2,0.31c1.28,0.2,2.46,0.31,3.57,0.34
		c2.54,0.06,3.82-0.61,3.85-2.01c0.02-0.91-0.31-1.63-1-2.18s-1.67-0.83-2.95-0.86l-0.52-0.01c-1.98-0.04-3.26-0.12-3.82-0.24
		c-0.8-0.16-1.2-0.5-1.19-1.02c0.01-0.5,0.36-0.74,1.06-0.72c0.12,0,0.57,0.04,1.35,0.11c0.77,0.07,1.48,0.11,2.12,0.12
		c1.51,0.03,2.91-0.05,4.19-0.24C14.91,64.07,15.46,63.97,15.28,63.96z"/>
	<path d="M14.9,52.42c0.6,0.13,1.24,0.92,1.9,2.35c0.47,1.01,0.54,2.21,0.23,3.61c-0.31,1.39-1.01,2.38-2.11,2.97
		c-1.11,0.61-2.48,0.73-4.11,0.36c-2.1-0.47-3.63-1.31-4.59-2.5c-0.96-1.2-1.26-2.62-0.89-4.25c0.27-1.21,0.77-2.15,1.48-2.8
		c0.67-0.62,1.37-0.85,2.08-0.69c0.58,0.13,0.81,0.47,0.69,1.01c-0.06,0.25-0.19,0.42-0.39,0.5c-0.28,0.05-0.63,0.13-1.06,0.26
		c-0.55,0.31-0.95,1-1.2,2.08c-0.25,1.13-0.02,2.09,0.69,2.9c0.71,0.81,1.86,1.39,3.44,1.74c2.5,0.56,3.97-0.15,4.42-2.14
		c0.26-1.15,0.07-2.22-0.56-3.22c0-0.01-0.22-0.24-0.66-0.71c-0.27-0.28-0.37-0.55-0.31-0.82c0.05-0.21,0.17-0.38,0.37-0.51
		S14.71,52.38,14.9,52.42z"/>
	<path d="M8.32,44.85c-0.01,0,0.14,0.13,0.44,0.41c0.36,0.32,0.77,0.62,1.24,0.92c0.68,0.43,1.45,0.84,2.33,1.22
		c0.5,0.21,1.26,0.5,2.29,0.87s1.8,0.66,2.31,0.88c0.72,0.31,1.21,0.6,1.46,0.86c0.27,0.28,0.33,0.61,0.17,0.97
		c-0.13,0.3-0.33,0.45-0.59,0.44c-0.15,0-0.4-0.08-0.75-0.23c-0.27-0.12-0.61-0.27-1.02-0.45c-0.41-0.18-0.68-0.3-0.81-0.36
		c-0.56-0.24-1.31-0.54-2.25-0.89c-0.94-0.35-1.59-0.6-1.96-0.76c-1.45-0.63-2.52-1.25-3.23-1.86c-0.67-0.59-0.92-1.11-0.73-1.54
		c0.09-0.21,0.25-0.37,0.47-0.47C7.91,44.77,8.12,44.77,8.32,44.85z M12.44,39.85c0.34,0.15,0.54,0.65,0.6,1.52
		c0.04,1.24,0.08,2.49,0.13,3.73c1.86-0.72,3.46-1.21,4.78-1.48c1.19-0.24,1.99-0.27,2.4-0.09c0.23,0.1,0.4,0.27,0.5,0.49
		c0.1,0.23,0.11,0.44,0.02,0.64c-0.09,0.22-0.3,0.35-0.63,0.41c-0.81,0.12-1.96,0.31-3.44,0.57c-1,0.21-2.09,0.59-3.29,1.13
		c-0.42,0.19-0.64,0.29-0.65,0.3c-0.27,0.08-0.54,0.05-0.82-0.06c-0.25-0.11-0.39-0.37-0.42-0.79c0-0.57-0.01-1.14-0.02-1.71
		c-0.02-0.56-0.1-1.47-0.25-2.74c-0.09-0.77-0.09-1.25,0-1.45C11.57,39.79,11.94,39.64,12.44,39.85z"/>
	<path d="M18.53,32.45c0.5,0.32,0.58,0.73,0.26,1.24c-0.11,0.17-0.26,0.27-0.45,0.29c-0.16,0-0.32-0.01-0.49-0.01
		c-0.6,0.05-1.06,0.33-1.39,0.85c-0.57,0.88-0.35,1.64,0.65,2.29c0.35,0.22,0.7,0.34,1.05,0.34c0.3,0,0.7-0.08,1.19-0.26
		c1.11-0.4,1.84-0.62,2.2-0.67c0.73-0.11,1.4,0.04,2.01,0.43c0.8,0.51,1.28,1.19,1.45,2.03c0.17,0.84-0.02,1.68-0.55,2.51
		c-0.51,0.79-1.14,1.31-1.88,1.55c-0.72,0.24-1.38,0.16-1.99-0.23c-0.61-0.39-0.75-0.86-0.41-1.39c0.29-0.45,0.78-0.46,1.47-0.03
		c0.66-0.08,1.13-0.35,1.42-0.79c0.24-0.37,0.32-0.75,0.25-1.13s-0.28-0.68-0.62-0.9c-0.31-0.2-0.69-0.24-1.15-0.13
		c-0.01,0-0.54,0.18-1.58,0.54c-1.44,0.49-2.7,0.39-3.77-0.3c-0.87-0.56-1.4-1.28-1.6-2.17c-0.19-0.88-0.01-1.76,0.55-2.62
		c0.46-0.71,1.04-1.2,1.74-1.47C17.54,32.15,18.09,32.17,18.53,32.45z"/>
	<path d="M27.53,33.07c0.34,0.28,0.52,0.61,0.56,0.98c0.04,0.37-0.08,0.73-0.36,1.06c-0.24,0.29-0.54,0.45-0.9,0.48
		c-0.36,0.02-0.69-0.09-0.99-0.34c-0.29-0.24-0.45-0.54-0.47-0.92c-0.03-0.37,0.08-0.71,0.33-1.01
		C26.28,32.62,26.88,32.54,27.53,33.07z"/>
</g>
</svg>
